<svg version="1.1" xmlns="http://www.w3.org/2000/svg" viewBox="0 0 798.9999389648438 306.60001373291016">
  <!-- svg-source:excalidraw -->
  <defs>
    <style>
      @font-face {
        font-family: "Virgil";
        src: url("https://excalidraw.com/FG_Virgil.woff2");
      }
      @font-face {
        font-family: "Cascadia";
        src: url("https://excalidraw.com/Cascadia.woff2");
      }
    </style>
  </defs>
  <rect x="0" y="0" width="798.9999389648438" height="306.60001373291016" fill="#ffffff"></rect><g transform="translate(292.9999694824219 10) rotate(0 114.19998168945312 37.20000457763672)"><path d="M0.5905800377897547 -0.8797564654939934 C84.9777554246112 1.4153660049362122, 165.57695856179956 -0.1834257852469655, 228.86108926287804 -1.6377114709527025 M-0.4526419321249946 0.19554548642508607 C57.167987632269806 -1.3112993429385016, 113.50357219498285 0.11109805018296426, 227.9350114275593 -0.5860814132150908 M229.48151186294854 -0.57312679477036 C227.37219544581183 19.35806254920093, 230.49556746414908 39.85541209519859, 230.36230907030404 74.78887861780822 M228.98143449332565 0.19216413889080286 C228.5707409540367 20.00663232128494, 228.25499467646597 37.656382829423706, 228.6367652406916 75.06267939601094 M228.4460228428729 74.05925205690923 C165.85739066215848 75.04756385808129, 103.68620561690896 75.86608483403299, 0.7735128517120458 73.96195212204954 M228.71999252125102 74.45064151570823 C161.03266181202298 72.43375119331877, 93.67370792014793 73.9022746498991, -0.29676275148383396 73.66584175177978 M-1.8373828809708357 74.09096181206405 C2.70856221500868 52.83690496906016, 0.5349791247033513 29.425741726520137, -0.05448224954307079 -1.9126676935702562 M0.015377371571958065 74.6811123052612 C-0.5239324160727246 45.68023716002405, -0.09888546549403499 16.783504203812775, -0.9721465716138482 -0.48715837206691504" stroke="#000000" stroke-width="1" fill="none"></path></g><g transform="translate(389.199951171875 31.20000457763672) rotate(0 23.5 12)"><text x="23.5" y="19" font-family="Cascadia, Segoe UI Emoji" font-size="20px" fill="#000000" text-anchor="middle" style="white-space: pre;" direction="ltr">High</text></g><g transform="translate(560.5999755859375 118.59998321533203) rotate(0 114.19998168945312 37.20000457763672)"><path d="M-1.1279325544021497 -0.44782649344030606 C53.24654417921231 -0.2728161802428959, 110.00320611944004 -1.4995155862515348, 229.8714638256417 -0.680219795456544 M0.7087914064186455 -0.5451908202497121 C48.393366033792674 -0.8814579798928057, 95.4517772762109 -0.8830755653847231, 228.59661361885162 -0.7559691367654686 M229.42225988581777 -0.725314874202013 C228.94031403898504 18.53122391071592, 229.69693003534582 41.451561981522524, 229.4942318983376 75.83571062609553 M227.7560536172241 -0.16810615919530392 C228.33930642158893 17.14595621739096, 229.2618874386063 34.708227593611014, 228.88933621905744 74.9163760934025 M230.06846611143993 74.60996064707389 C168.61341374686054 74.35850109290061, 110.70813462656372 74.94444230413949, -0.982118725666765 73.16092432102676 M228.24090311842482 75.25046646256368 C174.11218553335468 72.91339615195457, 121.0832906953193 72.75292068362981, -0.37599006724547535 74.2134001272009 M-0.5326940231025219 72.72681997343898 C1.5876829779287018 55.47169100269876, 0.6545330441136994 37.85082030222222, 0.8996676988899708 -0.14050688222050667 M-0.31817574240267277 73.73874763585627 C-0.2570658896522574 46.02313645273301, -1.4141014192657524 18.517770402056044, 0.6739134695380926 0.47708807326853275" stroke="#000000" stroke-width="1" fill="none"></path></g><g transform="translate(287 222.20000457763672) rotate(0 114.19998168945312 37.20000457763672)"><path d="M-1.0694641748982976 1.356319576550552 C76.64292083399904 -2.496001144862773, 155.76547244692506 -2.5104972600578312, 227.53361140837666 0.4607146982145467 M-0.3849907928771795 0.184203934355821 C55.231332403570974 -0.17133320721021528, 109.74745230442284 -1.7953317656907344, 227.91088193284867 -0.6388591285528903 M227.12404652312398 -1.7825454659759998 C226.7192831308914 20.235662662513363, 229.96635856939085 40.4229191003289, 227.77286561205983 75.76370571181178 M227.75754581950605 -0.1380098070949316 C228.20048097480327 18.320563339693635, 227.23528466332942 37.91632253689724, 227.70601206086576 74.67593602277339 M229.75760723319578 75.55121122762367 C178.26913093860895 73.72061924265572, 123.76964058624674 74.68132272571303, -0.22775062417720462 72.84507338561146 M227.98932042141857 74.35741356686856 C146.504285170713 75.08805008088846, 63.05714641582315 74.80802869715286, 0.09969619364197556 74.55207721709601 M0.21567006781697273 73.00985274836421 C0.0648931549511727 57.3429722655049, -0.8760883523501579 43.24528657634675, 0.48000581935048103 -1.6390941329300404 M0.6636288072913885 74.42616591788828 C0.592753703952977 55.11155676178636, -0.5056480213392288 34.493826038911976, -0.5648649428039789 -0.5956540908664465" stroke="#000000" stroke-width="1" fill="none"></path></g><g transform="translate(10 108.7999496459961) rotate(0 114.19998168945312 37.20000457763672)"><path d="M-1.0954978854347894 -0.23534451950989668 C57.27910117075678 -0.027979650589026517, 112.69297712522143 1.692383937390989, 227.21658632081676 0.47053088051183084 M0.6788219271447633 0.5756010361751187 C52.56160187563096 -0.1344752625283541, 102.93887479522948 0.3458764790003044, 228.28608806681765 -0.7774678848309915 M227.4367328695953 -0.09991494938731194 C229.90683318700678 26.251265251546066, 227.27310575570948 52.41111931112202, 228.63381717726588 74.75670977309346 M228.50779841281474 -0.6950782034546137 C227.97519335098343 15.440501675061288, 227.50470259733277 32.360678950427776, 228.6399662885815 73.58046208880842 M229.5316322513762 74.4446135994003 C169.0666677282481 73.70044331040597, 106.8148130405329 72.08097611562573, -0.9632494338662823 73.38425579136474 M229.24369710257793 75.21445879238036 C177.78633849231647 74.83543925429316, 129.09425551938998 75.56962339143533, -0.5649025039104312 75.0258912373782 M0.2701009325683117 72.44212516024709 C-0.42986666043821886 55.91156739571929, 2.20441890875276 36.53563075545906, -1.0334632582962513 1.6950587816536427 M0.9560225997120142 74.5669198539108 C0.5722963344927704 59.326156497302065, 0.3171032798167145 43.343501279731406, 0.5739273224025965 0.045779695734381676" stroke="#000000" stroke-width="1" fill="none"></path></g><g transform="translate(342.6999816894531 247.40000915527344) rotate(0 58.5 12)"><text x="58.5" y="19" font-family="Cascadia, Segoe UI Emoji" font-size="20px" fill="#000000" text-anchor="middle" style="white-space: pre;" direction="ltr">Unraveling</text></g><g transform="translate(89.19998168945312 133.9999542236328) rotate(0 35 12)"><text x="35" y="19" font-family="Cascadia, Segoe UI Emoji" font-size="20px" fill="#000000" text-anchor="middle" style="white-space: pre;" direction="ltr">Crisis</text></g><g transform="translate(621.7999572753906 143.79998779296875) rotate(0 53 12)"><text x="53" y="19" font-family="Cascadia, Segoe UI Emoji" font-size="20px" fill="#000000" text-anchor="middle" style="white-space: pre;" direction="ltr">Awakening</text></g><g><g transform="translate(522.9999694824219 41.59999084472656) rotate(0 74.36082349701786 37.16425035074353)"><path d="M-0.1253083236515522 -0.7580909840762615 C24.45089776441455 11.587776419272025, 123.12648320123554 62.37955866331855, 148.1901198618114 75.08659168556332 M-1.6502339229080827 1.4583073039446028 C23.225458004465327 13.945123910366867, 125.0892626723554 61.107409090359376, 150.37188091694378 73.11448398039676" stroke="#000000" stroke-width="1" fill="none"></path></g><g transform="translate(522.9999694824219 41.59999084472656) rotate(0 74.36082349701786 37.16425035074353)"><path d="M119.22774644592323 68.75798280582212 C131.78055016851437 73.19844670435546, 143.23218995819505 70.94531267477589, 151.68252111419105 75.02744530321098 M121.40943481238105 71.03712009124838 C130.9907618147853 70.73093848622577, 140.2883490046221 71.95708492196704, 150.81640387333 72.68211169906891" stroke="#000000" stroke-width="1" fill="none"></path></g><g transform="translate(522.9999694824219 41.59999084472656) rotate(0 74.36082349701786 37.16425035074353)"><path d="M127.9368849379853 50.17651598772829 C137.501657399802 61.317162813930786, 145.80865710442794 65.77330610822779, 151.68252111419105 75.02744530321098 M130.11857330444312 52.455653273154546 C136.78286714254133 58.15552293022105, 143.2255928274847 65.47268679228766, 150.81640387333 72.68211169906891" stroke="#000000" stroke-width="1" fill="none"></path></g></g><g><g transform="translate(669.7999572753906 197.59999084472656) rotate(0 -73.00627163120078 26.207620968231936)"><path d="M1.1477767936885355 0.33360813930630684 C-23.040046048909428 8.874093259125948, -121.72716507986188 43.09903081730008, -146.00148313120008 52.02929483726621 M0.29122088103555166 -0.5368515328969807 C-24.01323237896897 8.036754954913633, -122.99755629689434 44.20459344402887, -147.16032005609014 52.95209346936085" stroke="#000000" stroke-width="1" fill="none"></path></g><g transform="translate(669.7999572753906 197.59999084472656) rotate(0 -73.00627163120078 26.207620968231936)"><path d="M-123.61942160166686 33.00351935492124 C-131.22064276080158 40.107709896581625, -133.29783411791405 44.07721757568795, -148.91639652983287 53.38462943435647 M-123.21782714351897 34.369608611401574 C-129.22779500664726 38.16354563294415, -135.5470569640141 43.01083288108583, -146.80909052812495 53.15263787695207" stroke="#000000" stroke-width="1" fill="none"></path></g><g transform="translate(669.7999572753906 197.59999084472656) rotate(0 -73.00627163120078 26.207620968231936)"><path d="M-116.60430699950729 52.28844013527206 C-125.92518708905972 55.0797153062849, -129.59565941471263 54.66920940019849, -148.91639652983287 53.38462943435647 M-116.2027125413594 53.6545293917524 C-124.03239051266878 52.65132077528834, -132.0856366782272 52.731793796466505, -146.80909052812495 53.15263787695207" stroke="#000000" stroke-width="1" fill="none"></path></g></g><g><g transform="translate(278.9999694824219 258.8000030517578) rotate(0 -65.14339176483918 -34.54658135771285)"><path d="M0.9052401535212995 0.047450626641512006 C-21.053066087514164 -11.170677331338325, -108.51922869756818 -55.97629498963554, -130.71080749109387 -67.4938042037189 M-0.078647495219484 -0.973241739710793 C-22.208085267553106 -12.501516991198685, -108.980439962456 -57.955262389819445, -131.19202368319966 -69.14061334206723" stroke="#000000" stroke-width="1" fill="none"></path></g><g transform="translate(278.9999694824219 258.8000030517578) rotate(0 -65.14339176483918 -34.54658135771285)"><path d="M-101.35289951834139 -63.871792201077184 C-111.42058737874758 -67.66693315676908, -125.53173113881303 -67.48373507297, -131.65789372459986 -69.15338177083991 M-101.04176989059206 -65.33353111346587 C-109.91547133170252 -66.5862304854842, -118.88808682555468 -66.599799565389, -130.3004229756538 -68.68285939506255" stroke="#000000" stroke-width="1" fill="none"></path></g><g transform="translate(278.9999694824219 258.8000030517578) rotate(0 -65.14339176483918 -34.54658135771285)"><path d="M-110.7495493955966 -45.628355752038345 C-117.15649472761629 -56.54703592849243, -127.63502679948579 -63.41649185897661, -131.65789372459986 -69.15338177083991 M-110.43841976784728 -47.09009466442703 C-116.55831838960563 -53.554242350265746, -122.87394904454604 -58.726302454942605, -130.3004229756538 -68.68285939506255" stroke="#000000" stroke-width="1" fill="none"></path></g></g><g><g transform="translate(140.199951171875 101.99998474121094) rotate(0 67.24259726948569 -28.47489102273714)"><path d="M-0.16395509317517276 0.9236973412334917 C22.722134366879864 -8.367747317999601, 113.42829104190072 -46.341971289366484, 136.19436478540302 -56.11206966564059 M-1.709170246431604 0.36303450004197657 C21.169094357282543 -9.24205059005879, 112.58952229965787 -48.33792809291743, 135.55835762976668 -57.87347938670777" stroke="#000000" stroke-width="1" fill="none"></path></g><g transform="translate(140.199951171875 101.99998474121094) rotate(0 67.24259726948569 -28.47489102273714)"><path d="M115.11770716472356 -36.465409155900126 C119.32518359599317 -40.25442232628372, 121.22239666451367 -46.1422343516995, 133.94387854619882 -58.39332229076885 M114.14067342853932 -36.8608885053196 C119.84272204280762 -42.92889147380647, 124.38190180655442 -47.385699534061075, 136.19646115398965 -57.978261619722474" stroke="#000000" stroke-width="1" fill="none"></path></g><g transform="translate(140.199951171875 101.99998474121094) rotate(0 67.24259726948569 -28.47489102273714)"><path d="M107.1359861727617 -55.37075581742196 C112.93432163996826 -55.24518047426147, 116.47964570533836 -57.229309351207604, 133.94387854619882 -58.39332229076885 M106.15895243657747 -55.76623516684143 C113.55833767963907 -57.38415409598891, 119.9585267569785 -57.43301226057295, 136.19646115398965 -57.978261619722474" stroke="#000000" stroke-width="1" fill="none"></path></g></g></svg>